# xmcd
#
# Track frame offsets:
#	150
#	16435
#	33865
#	50622
#	68532
#	81560
#	98815
#	114090
#	132855
#	141717
#	166145
#	181300
#	200435
#	224002
#	242280
#	261972
#	280505
#	296260
#	319727
#	333930
#
# Disc length: 4602 seconds
#
# Revision: 4
# Processed by: cddbd v1.5.2PL0 Copyright (c) Steve Scherf et al.
# Submitted via: audiograbber 1.83.01
#
DISCID=1f11f814
DTITLE=Various Artist - John Laws Country Collection 3
DYEAR=1995
DGENRE=Country
TTITLE0=Boz Scaggs - Fly Like A Bird
TTITLE1=BB King and Irma Thomas - We're Gonna Make It
TTITLE2=Tammy Wynette - All I Am To You
TTITLE3=Sawyer Brown - Outskirts Of Town
TTITLE4=Bob Gibson - Stops Along The Way
TTITLE5=The Mavericks - Oh What A Crying Shame
TTITLE6=Kelly Willis - Whatever Way The Wind Blows
TTITLE7=Mark Chestnutt - Almost Goodbye
TTITLE8=Johnny Cash - Delia's Gone
TTITLE9=B-Tribe - You Won't See Me Cry
TTITLE10=Mary Chapin Carpenter - Passionate Kisses
TTITLE11=Alabama - Once Upon A Lifetime
TTITLE12=Sam Moore/Conway Twitty - Rainy Night In Georgia
TTITLE13=Vince Gill - When Love Finds You
TTITLE14=Confederate Railroad - Trashy Women
TTITLE15=Willie Nelson - Have I Stayed Away Too Long
TTITLE16=Kathy Mattea - Walking Away A Winner
TTITLE17=The Mavericks - I Should Have Been True
TTITLE18=Ricky Van Shelton - Lola's Love
TTITLE19=Bob Gibson - The Man Who Turns The Damn Thing Off And On
EXTD=
EXTT0=
EXTT1=
EXTT2=
EXTT3=
EXTT4=
EXTT5=
EXTT6=
EXTT7=
EXTT8=
EXTT9=
EXTT10=
EXTT11=
EXTT12=
EXTT13=
EXTT14=
EXTT15=
EXTT16=
EXTT17=
EXTT18=
EXTT19=
PLAYORDER=
